# xmcd CD database file
#
# Track frame offsets:
#	150
#	22333
#	44251
#	68723
#	87328
#	108045
#	127486
#	148244
#	166337
#	185701
#
# Disc length: 2787 seconds
#
# Revision: 0
# Processed by: cddbd v1.5.2PL0 Copyright (c) Steve Scherf et al.
# Submitted via: CDex 1.51
#
DISCID=960ae10a
DTITLE=Downright Blue - Downright Blue
DYEAR=2005
DGENRE=Blues
TTITLE0=Despite
TTITLE1=All I had
TTITLE2=Sunday Down
TTITLE3=Stick and stone
TTITLE4=Tragedy
TTITLE5=Grudge
TTITLE6=In Between
TTITLE7=Pill
TTITLE8=Crash
TTITLE9=Bloodletting
EXTD=YEAR: 2005
EXTT0=
EXTT1=
EXTT2=
EXTT3=
EXTT4=
EXTT5=
EXTT6=
EXTT7=
EXTT8=
EXTT9=
PLAYORDER=
